<svg width="248.744" height="73.72" viewBox="0 0 248.744 73.72" xmlns="http://www.w3.org/2000/svg"><g id="svgGroup" stroke-linecap="round" fill-rule="evenodd" font-size="9pt" stroke="#000" stroke-width="0.25mm" fill="black" style="stroke:#000;stroke-width:0.25mm;fill:black"><path d="M 7.624 73.02 Q 5.724 71.02 4.724 68.57 Q 3.724 66.12 3.324 63.57 A 22.05 22.05 0 0 1 3.057 60.148 A 22.52 22.52 0 0 1 3.124 58.42 A 28.906 28.906 0 0 1 3.633 54.763 A 25.229 25.229 0 0 1 3.924 53.52 Q 4.824 49.92 6.224 46.32 Q 7.624 42.72 8.624 39.17 A 31.06 31.06 0 0 0 9.722 33.048 A 28.455 28.455 0 0 0 9.774 32.17 A 13.589 13.589 0 0 0 9.786 31.58 Q 9.786 28.646 8.511 25.821 A 16.151 16.151 0 0 0 8.324 25.42 Q 8.024 24.92 7.924 24.92 A 0.092 0.092 0 0 0 7.871 24.934 Q 7.835 24.959 7.826 25.023 A 0.346 0.346 0 0 0 7.824 25.07 A 0.37 0.37 0 0 0 7.846 25.202 A 0.332 0.332 0 0 0 7.924 25.32 Q 8.197 28.058 7.638 30.962 A 22.604 22.604 0 0 1 7.524 31.52 Q 6.824 34.72 5.724 38.07 Q 4.624 41.42 3.274 44.97 Q 1.924 48.52 1.024 52.22 Q 0.324 54.92 0.074 57.72 Q -0.176 60.52 0.424 63.27 A 16.013 16.013 0 0 0 2.599 68.481 A 17.978 17.978 0 0 0 2.624 68.52 A 14.449 14.449 0 0 0 4.719 71.063 Q 5.783 72.102 7.136 73.058 A 23.612 23.612 0 0 0 7.224 73.12 A 0.885 0.885 0 0 0 7.677 73.361 A 1.094 1.094 0 0 0 7.724 73.37 Q 8.024 73.42 7.624 73.02 Z M 15.022 53.892 A 34.352 34.352 0 0 0 14.724 55.12 Q 13.824 58.32 12.524 61.57 A 583.144 583.144 0 0 1 11.74 63.518 Q 11.363 64.451 11.016 65.3 A 326.25 326.25 0 0 1 10.224 67.22 L 9.924 67.82 Q 9.824 68.02 9.624 68.02 A 0.467 0.467 0 0 1 9.577 68.018 Q 9.383 67.999 9.309 67.811 A 0.625 0.625 0 0 1 9.274 67.67 A 5.3 5.3 0 0 1 9.239 67.373 A 4.142 4.142 0 0 1 9.224 67.02 Q 9.024 61.92 10.424 57.07 Q 11.824 52.22 13.524 47.12 Q 14.524 44.02 15.374 40.77 A 24.861 24.861 0 0 0 15.892 38.252 A 29.843 29.843 0 0 0 16.224 33.72 Q 16.144 33.403 16.253 33.337 A 0.133 0.133 0 0 1 16.324 33.32 A 0.233 0.233 0 0 1 16.364 33.324 Q 16.515 33.35 16.761 33.567 A 3.516 3.516 0 0 1 16.924 33.72 A 6.642 6.642 0 0 1 17.308 34.42 Q 17.753 35.357 17.955 36.505 A 11.918 11.918 0 0 1 18.124 38.57 Q 18.124 41.52 17.524 44.57 Q 16.924 47.62 16.024 50.47 A 110.042 110.042 0 0 0 15.984 50.596 Q 15.392 52.477 15.022 53.892 Z M 14.324 40.02 A 12.718 12.718 0 0 0 14.55 38.713 Q 14.647 37.923 14.674 37.02 A 16.59 16.59 0 0 0 14.681 36.532 Q 14.681 35.178 14.462 33.761 A 20.082 20.082 0 0 0 14.424 33.52 Q 14.124 31.72 13.374 30.07 A 9.781 9.781 0 0 0 11.858 27.686 A 9.07 9.07 0 0 0 11.424 27.22 Q 10.824 26.82 10.724 26.82 A 0.37 0.37 0 0 0 10.64 26.829 Q 10.371 26.891 10.724 27.42 A 4.273 4.273 0 0 1 10.997 28.245 Q 11.282 29.476 11.174 31.47 Q 11.024 34.22 10.524 37.17 Q 10.025 40.108 9.478 42.452 A 62.879 62.879 0 0 1 9.474 42.47 A 557.217 557.217 0 0 0 9.283 43.286 Q 8.935 44.785 8.838 45.248 A 9.288 9.288 0 0 0 8.824 45.32 Q 8.291 46.689 7.845 48.58 A 41.521 41.521 0 0 0 7.574 49.82 A 36.945 36.945 0 0 0 7.283 51.41 Q 7.032 52.998 7.024 54.144 A 10.715 10.715 0 0 0 7.024 54.22 A 0.617 0.617 0 0 0 6.98 54.345 Q 6.929 54.548 6.924 54.935 A 6.687 6.687 0 0 0 6.924 55.02 A 1.828 1.828 0 0 0 6.937 55.251 Q 6.987 55.641 7.224 55.72 A 0.092 0.092 0 0 0 7.275 55.698 Q 7.373 55.625 7.566 55.315 A 6.894 6.894 0 0 0 7.624 55.22 A 8.065 8.065 0 0 1 7.767 54.989 Q 7.916 54.759 8.035 54.617 A 1.529 1.529 0 0 1 8.124 54.52 A 71.138 71.138 0 0 0 10.315 50.286 A 85.25 85.25 0 0 0 11.574 47.52 A 67.232 67.232 0 0 0 14.003 41.063 A 60.593 60.593 0 0 0 14.324 40.02 Z M 14.674 17.37 A 26.059 26.059 0 0 0 15.146 17.433 Q 15.844 17.52 16.224 17.52 A 10.527 10.527 0 0 0 16.962 17.495 Q 19.792 17.296 21.124 15.52 A 6.568 6.568 0 0 0 21.481 14.991 Q 22.135 13.916 22.415 12.541 A 11.146 11.146 0 0 0 22.624 10.32 A 4.953 4.953 0 0 0 22.613 10.003 Q 22.561 9.191 22.244 8.341 A 8.365 8.365 0 0 0 21.574 6.97 A 7.3 7.3 0 0 0 20.38 5.472 A 8.652 8.652 0 0 0 18.524 4.12 Q 18.424 4.02 18.174 3.87 A 1.436 1.436 0 0 0 18.063 3.81 Q 17.878 3.72 17.724 3.72 Q 17.624 3.82 17.924 4.17 Q 18.083 4.356 18.214 4.528 A 5.638 5.638 0 0 1 18.424 4.82 Q 19.127 5.734 19.335 7.291 A 10.785 10.785 0 0 1 19.424 8.72 A 9.351 9.351 0 0 1 19.417 9.083 Q 19.386 9.858 19.226 10.524 A 5.092 5.092 0 0 1 18.524 12.17 A 10.701 10.701 0 0 1 17.818 13.114 A 8.405 8.405 0 0 1 16.524 14.37 A 18.038 18.038 0 0 1 16.044 14.729 Q 15.223 15.32 14.524 15.67 A 6.216 6.216 0 0 0 14.282 15.797 Q 13.624 16.163 13.624 16.42 Q 13.624 17.045 14.264 17.273 A 2.113 2.113 0 0 0 14.674 17.37 Z M 12.524 13.52 Q 11.324 14.02 11.324 12.92 A 2.235 2.235 0 0 1 11.593 11.871 A 3.133 3.133 0 0 1 11.924 11.37 Q 12.524 10.62 13.074 9.72 A 5.593 5.593 0 0 0 13.717 8.17 A 6.677 6.677 0 0 0 13.824 7.67 A 2.785 2.785 0 0 0 13.863 7.227 Q 13.876 6.207 13.224 4.82 A 3.007 3.007 0 0 0 13.022 4.414 Q 12.828 4.086 12.524 3.72 Q 12.024 3.12 12.224 3.02 Q 12.419 2.922 13.042 3.158 A 5.716 5.716 0 0 1 13.074 3.17 Q 13.605 3.374 13.835 3.478 A 2.512 2.512 0 0 1 13.924 3.52 Q 15.624 4.32 16.474 5.92 Q 17.051 7.008 17.236 7.911 A 4.036 4.036 0 0 1 17.324 8.72 A 3.823 3.823 0 0 1 16.072 11.609 A 5.054 5.054 0 0 1 15.774 11.87 A 9.012 9.012 0 0 1 14.084 12.958 A 7.384 7.384 0 0 1 12.524 13.52 Z M 7.774 67.22 A 41.874 41.874 0 0 0 7.987 67.931 Q 8.217 68.67 8.424 69.22 A 11.907 11.907 0 0 0 8.81 70.229 A 9.045 9.045 0 0 0 9.374 71.32 Q 9.924 72.22 10.624 73.02 A 0.121 0.121 0 0 1 10.716 73.062 Q 10.734 73.082 10.749 73.112 A 0.403 0.403 0 0 1 10.774 73.17 A 0.496 0.496 0 0 1 10.777 73.18 Q 10.813 73.296 10.752 73.316 A 0.093 0.093 0 0 1 10.724 73.32 A 0.846 0.846 0 0 1 10.569 73.304 Q 10.377 73.268 10.105 73.151 A 5.308 5.308 0 0 1 9.824 73.02 Q 8.424 72.52 7.574 71.72 Q 6.724 70.92 6.124 68.92 A 6.063 6.063 0 0 1 6.017 68.611 Q 5.796 67.907 5.674 66.97 Q 5.524 65.82 5.524 64.77 A 12.914 12.914 0 0 1 5.533 64.259 Q 5.547 63.903 5.582 63.594 A 5.912 5.912 0 0 1 5.674 63.02 A 2.395 2.395 0 0 1 5.695 62.929 Q 5.85 62.32 6.224 62.32 A 0.089 0.089 0 0 1 6.266 62.332 Q 6.418 62.414 6.623 63.074 A 10.409 10.409 0 0 1 6.724 63.42 A 28.766 28.766 0 0 0 6.744 63.495 Q 6.957 64.267 7.118 64.679 A 2.979 2.979 0 0 0 7.224 64.92 A 20.53 20.53 0 0 0 7.395 65.759 A 24.278 24.278 0 0 0 7.774 67.22 Z M 9.673 7.689 A 2.033 2.033 0 0 0 9.624 8.12 A 1.776 1.776 0 0 0 9.635 8.319 Q 9.66 8.542 9.741 8.784 A 3.34 3.34 0 0 0 9.924 9.22 A 1.374 1.374 0 0 0 9.96 9.287 Q 10.158 9.635 10.507 9.755 A 1.267 1.267 0 0 0 10.924 9.82 A 0.689 0.689 0 0 0 11.334 9.688 Q 11.559 9.527 11.724 9.17 A 5.689 5.689 0 0 0 11.779 9.047 Q 11.939 8.677 11.994 8.394 A 1.435 1.435 0 0 0 12.024 8.12 A 1.903 1.903 0 0 0 12.001 7.832 Q 11.969 7.626 11.894 7.399 A 4.042 4.042 0 0 0 11.724 6.97 A 1.964 1.964 0 0 0 11.641 6.811 Q 11.554 6.659 11.452 6.554 A 0.716 0.716 0 0 0 10.924 6.32 A 1.402 1.402 0 0 0 10.805 6.325 Q 10.415 6.358 10.163 6.614 A 1.243 1.243 0 0 0 9.924 6.97 A 4.325 4.325 0 0 0 9.805 7.252 Q 9.718 7.481 9.673 7.689 Z" id="0" vector-effect="non-scaling-stroke"/><path d="M 41.124 72.52 Q 42.224 72.62 43.374 72.62 Q 44.457 72.62 44.52 72.886 A 0.147 0.147 0 0 1 44.524 72.92 A 0.066 0.066 0 0 1 44.494 72.971 Q 44.415 73.033 44.128 73.069 A 3.194 3.194 0 0 1 44.124 73.07 A 6.515 6.515 0 0 1 43.55 73.115 A 7.689 7.689 0 0 1 43.274 73.12 L 42.324 73.12 L 41.724 73.12 Q 38.624 73.12 35.624 72.22 Q 32.624 71.32 30.074 69.67 Q 27.524 68.02 25.524 65.62 Q 23.524 63.22 22.524 60.12 A 47.965 47.965 0 0 1 20.577 51.874 A 41.512 41.512 0 0 1 20.224 48.22 A 60.949 60.949 0 0 1 20.142 45.071 A 58.272 58.272 0 0 1 20.724 36.82 A 39.245 39.245 0 0 1 21.217 33.857 Q 21.524 32.35 21.965 30.692 A 68.805 68.805 0 0 1 22.274 29.57 A 53.876 53.876 0 0 1 24.449 23.411 A 62.323 62.323 0 0 1 25.374 21.32 Q 27.324 17.12 30.274 13.02 A 40.358 40.358 0 0 1 37.292 5.547 A 44.977 44.977 0 0 1 37.324 5.52 Q 41.624 1.92 46.874 0.72 A 28.218 28.218 0 0 1 51.697 0.034 Q 54.374 -0.105 56.924 0.32 A 21.622 21.622 0 0 1 63.002 2.246 A 19.554 19.554 0 0 1 65.424 3.67 Q 69.124 6.22 70.324 10.12 A 0.886 0.886 0 0 1 70.37 10.238 Q 70.434 10.434 70.498 10.813 A 11.087 11.087 0 0 1 70.524 10.97 A 3.288 3.288 0 0 1 70.544 11.125 Q 70.597 11.635 70.43 11.813 A 0.305 0.305 0 0 1 70.424 11.82 Q 70.335 11.908 70.169 11.45 A 5.179 5.179 0 0 1 70.124 11.32 Q 69.97 10.859 69.816 10.634 A 0.797 0.797 0 0 0 69.724 10.52 A 24.464 24.464 0 0 0 66.491 6.894 Q 63.577 4.251 60.224 3.27 A 20.712 20.712 0 0 0 54.386 2.412 A 19.885 19.885 0 0 0 49.724 2.97 A 27.255 27.255 0 0 0 40.501 7.159 A 31.199 31.199 0 0 0 39.924 7.57 A 32.478 32.478 0 0 0 35.572 11.341 A 25.968 25.968 0 0 0 32.624 15.02 Q 27.924 22.12 25.474 30.12 A 51.686 51.686 0 0 0 23.208 45.34 A 54.42 54.42 0 0 0 23.224 46.62 Q 23.324 50.52 24.074 54.82 Q 24.824 59.12 27.024 63.02 Q 29.224 67.02 33.074 69.67 A 16.72 16.72 0 0 0 37.326 71.815 A 14.263 14.263 0 0 0 41.124 72.52 Z M 33.224 39.42 A 48.469 48.469 0 0 0 32.724 46.165 A 44.963 44.963 0 0 0 32.724 46.27 A 44.39 44.39 0 0 0 32.917 50.495 A 37.338 37.338 0 0 0 33.174 52.57 Q 33.624 55.52 34.574 57.82 A 14.685 14.685 0 0 0 35.563 59.8 A 10.917 10.917 0 0 0 36.924 61.62 A 10.244 10.244 0 0 0 39.95 63.694 A 12.338 12.338 0 0 0 40.874 64.07 A 14.407 14.407 0 0 0 44.79 64.879 A 16.992 16.992 0 0 0 45.974 64.92 Q 48.724 64.92 51.774 64.12 Q 54.824 63.32 57.824 61.62 Q 58.32 61.289 58.543 61.369 A 0.216 0.216 0 0 1 58.624 61.42 Q 58.801 61.598 58.544 61.815 A 1.099 1.099 0 0 1 58.474 61.87 Q 58.124 62.12 57.824 62.32 Q 55.224 64.32 52.324 65.52 A 20.832 20.832 0 0 1 46.842 66.979 A 19.558 19.558 0 0 1 46.474 67.02 A 18.21 18.21 0 0 1 44.63 67.115 A 16.71 16.71 0 0 1 40.774 66.67 Q 38.024 66.02 35.824 64.22 Q 33.724 62.42 32.424 59.87 A 22.12 22.12 0 0 1 30.74 55.396 A 25.479 25.479 0 0 1 30.474 54.27 A 35.387 35.387 0 0 1 29.738 48.332 A 38.86 38.86 0 0 1 29.724 47.92 Q 29.624 44.62 29.924 41.42 A 47.341 47.341 0 0 1 31.728 31.77 A 52.569 52.569 0 0 1 31.924 31.12 A 43.294 43.294 0 0 1 35.846 22.073 A 40.32 40.32 0 0 1 36.174 21.52 Q 38.824 17.12 42.524 13.82 Q 46.224 10.52 50.824 9.22 A 15.846 15.846 0 0 1 54.84 8.706 A 16.421 16.421 0 0 1 55.524 8.72 A 14.271 14.271 0 0 1 58.759 9.216 A 12.66 12.66 0 0 1 59.974 9.62 Q 62.024 10.42 63.524 11.97 Q 65.024 13.52 65.524 15.72 A 8.295 8.295 0 0 1 65.702 17.415 A 7.891 7.891 0 0 1 65.124 20.37 A 11.893 11.893 0 0 1 62.747 24.14 A 11.466 11.466 0 0 1 62.624 24.27 A 9.662 9.662 0 0 1 60.351 26.027 A 8.7 8.7 0 0 1 59.024 26.62 A 6.273 6.273 0 0 1 57.793 26.921 Q 56.461 27.101 55.224 26.62 A 0.077 0.077 0 0 1 55.165 26.59 Q 55.108 26.525 55.074 26.32 A 0.43 0.43 0 0 1 55.069 26.288 Q 55.046 26.029 55.414 26.118 A 1.184 1.184 0 0 1 55.424 26.12 A 3.163 3.163 0 0 0 55.944 26.162 Q 56.95 26.162 58.174 25.57 Q 59.724 24.82 60.974 23.52 A 9.75 9.75 0 0 0 62.753 20.916 A 11.306 11.306 0 0 0 62.974 20.42 A 6.761 6.761 0 0 0 63.509 17.798 A 6.9 6.9 0 0 0 63.424 16.72 Q 63.124 15.32 62.174 14.27 A 6.51 6.51 0 0 0 60.649 13.04 A 8.26 8.26 0 0 0 59.724 12.57 A 10.775 10.775 0 0 0 57.55 11.9 A 13.219 13.219 0 0 0 56.374 11.72 A 11.622 11.622 0 0 0 55.124 11.653 Q 53.857 11.653 52.524 11.92 A 15.214 15.214 0 0 0 46.301 14.633 A 18.266 18.266 0 0 0 45.474 15.27 Q 42.224 17.92 39.724 21.72 A 39.804 39.804 0 0 0 36.189 28.456 A 45.64 45.64 0 0 0 35.524 30.17 A 43.678 43.678 0 0 0 33.391 38.269 A 40.017 40.017 0 0 0 33.224 39.42 Z M 26.724 34.92 Q 27.524 29.62 29.274 24.62 Q 31.024 19.62 33.874 15.47 Q 36.724 11.32 40.924 8.32 A 24.704 24.704 0 0 1 47.736 4.937 A 30.377 30.377 0 0 1 50.824 4.12 A 17.895 17.895 0 0 1 52.917 3.835 Q 53.807 3.764 54.774 3.764 A 27.476 27.476 0 0 1 55.324 3.77 A 16.462 16.462 0 0 1 60.245 4.644 A 18.374 18.374 0 0 1 60.324 4.67 Q 62.824 5.52 64.974 7.22 A 11.314 11.314 0 0 1 67.262 9.697 A 15.313 15.313 0 0 1 68.524 11.92 Q 69.518 14.138 69.518 16.297 A 9.345 9.345 0 0 1 69.424 17.62 Q 69.024 20.42 67.724 22.67 A 13.322 13.322 0 0 1 65.381 25.676 A 12.238 12.238 0 0 1 64.524 26.42 Q 62.999 27.623 61.539 27.99 A 5.371 5.371 0 0 1 60.824 28.12 A 8.046 8.046 0 0 1 60.591 28.159 Q 59.816 28.276 59.656 28.118 A 0.139 0.139 0 0 1 59.624 28.07 Q 59.524 27.82 60.724 27.42 A 5.624 5.624 0 0 0 62.208 26.674 Q 62.831 26.246 63.46 25.622 A 14.339 14.339 0 0 0 64.574 24.37 A 10.473 10.473 0 0 0 66.373 20.889 A 14.595 14.595 0 0 0 66.924 18.12 A 8.038 8.038 0 0 0 66.968 17.278 A 8.16 8.16 0 0 0 66.424 14.37 Q 65.724 12.52 64.424 11.12 A 12.23 12.23 0 0 0 61.779 8.984 A 13.998 13.998 0 0 0 61.324 8.72 Q 59.524 7.72 57.524 7.42 A 20.431 20.431 0 0 0 55.085 7.223 Q 52.178 7.168 49.624 8.02 A 27.241 27.241 0 0 0 46.067 9.478 A 21.374 21.374 0 0 0 43.374 11.07 Q 40.724 12.92 39.074 14.72 A 84.535 84.535 0 0 0 38.411 15.45 Q 37.336 16.651 37.024 17.12 Q 33.924 21.02 31.624 25.57 Q 29.324 30.12 27.824 35.12 Q 27.824 35.22 27.674 35.82 Q 27.524 36.42 27.374 37.07 A 11.064 11.064 0 0 1 27.166 37.843 A 9.088 9.088 0 0 1 27.024 38.27 A 5.65 5.65 0 0 1 26.958 38.443 Q 26.826 38.772 26.746 38.814 A 0.048 0.048 0 0 1 26.724 38.82 A 0.133 0.133 0 0 1 26.609 38.748 Q 26.538 38.635 26.526 38.347 A 3.028 3.028 0 0 1 26.524 38.22 L 26.524 36.97 A 7.689 7.689 0 0 1 26.6 35.871 A 6.997 6.997 0 0 1 26.624 35.72 A 17.848 17.848 0 0 0 26.662 35.477 Q 26.713 35.147 26.722 34.982 A 1.174 1.174 0 0 0 26.724 34.92 Z M 46.624 68.82 Q 50.224 68.22 53.574 66.62 Q 56.924 65.02 59.624 62.52 A 0.783 0.783 0 0 0 59.728 62.454 Q 59.952 62.291 60.424 61.82 A 4.09 4.09 0 0 1 60.584 61.667 Q 61.052 61.248 61.224 61.42 Q 61.424 61.62 61.124 62.02 Q 60.894 62.326 60.723 62.574 A 10.696 10.696 0 0 0 60.624 62.72 A 15.612 15.612 0 0 1 55.675 67.294 A 18.08 18.08 0 0 1 55.374 67.47 Q 52.124 69.32 48.624 70.42 Q 45.724 71.22 42.424 70.97 Q 39.124 70.72 36.224 69.32 A 10.323 10.323 0 0 1 35.863 69.152 Q 35.37 68.91 35.182 68.733 A 0.614 0.614 0 0 1 35.124 68.67 Q 34.924 68.42 35.124 68.32 A 0.697 0.697 0 0 1 35.256 68.272 Q 35.45 68.22 35.774 68.22 Q 36.224 68.22 36.624 68.32 A 27.052 27.052 0 0 0 37.653 68.485 Q 38.182 68.561 38.773 68.627 A 47.14 47.14 0 0 0 39.174 68.67 Q 40.624 68.82 42.074 68.87 Q 43.524 68.92 44.724 68.92 Q 45.837 68.92 46.519 68.834 A 6.337 6.337 0 0 0 46.624 68.82 Z" id="1" vector-effect="non-scaling-stroke"/><path d="M 83.332 68.323 A 0.625 0.625 0 0 0 83.324 68.22 A 0.324 0.324 0 0 0 83.256 68.147 Q 83.018 67.955 82.374 68.17 Q 81.624 68.42 80.824 68.32 A 7.335 7.335 0 0 1 79.803 68.212 A 5.208 5.208 0 0 1 76.724 66.52 A 9.572 9.572 0 0 1 75.908 65.453 A 10.434 10.434 0 0 1 74.574 62.47 Q 73.924 60.12 73.824 57.72 A 40.623 40.623 0 0 1 73.803 57.133 Q 73.767 55.791 73.832 54.721 A 15.993 15.993 0 0 1 73.924 53.72 Q 74.111 52.033 74.709 50.013 A 35.589 35.589 0 0 1 75.574 47.47 Q 76.924 43.92 79.124 40.67 A 25.941 25.941 0 0 1 79.262 40.468 A 23.139 23.139 0 0 1 84.274 35.17 Q 87.224 32.92 90.724 32.92 A 5.915 5.915 0 0 1 91.581 32.98 A 3.897 3.897 0 0 1 94.324 34.62 Q 95.524 36.32 95.974 38.72 Q 96.424 41.12 96.374 43.67 A 66.37 66.37 0 0 1 96.327 45.199 Q 96.296 45.92 96.25 46.557 A 30.433 30.433 0 0 1 96.124 47.92 A 12.282 12.282 0 0 1 95.995 48.84 A 15.807 15.807 0 0 1 95.724 50.07 Q 95.424 51.22 95.174 52.27 A 140.151 140.151 0 0 0 95.149 52.374 Q 94.916 53.355 94.774 54.02 Q 94.681 54.454 94.76 54.657 A 0.26 0.26 0 0 0 94.924 54.82 Q 95.524 54.92 96.024 54.02 A 24.825 24.825 0 0 0 96.247 53.609 Q 96.594 52.956 96.824 52.42 A 52.725 52.725 0 0 0 96.938 52.125 Q 97.756 49.998 98.224 48.22 A 21.873 21.873 0 0 0 98.604 46.481 A 27.88 27.88 0 0 0 98.924 44.02 Q 99.136 42.533 99.123 40.819 A 28.445 28.445 0 0 0 99.074 39.37 A 17.648 17.648 0 0 0 99.01 38.582 A 15.343 15.343 0 0 0 98.074 34.62 Q 97.224 32.42 95.474 30.92 Q 94.352 29.959 92.759 29.614 A 9.134 9.134 0 0 0 90.824 29.42 A 15.042 15.042 0 0 0 89.742 29.458 A 11.881 11.881 0 0 0 83.224 31.87 Q 80.024 34.32 77.824 37.92 Q 75.624 41.52 74.424 45.62 A 64.775 64.775 0 0 0 74.179 46.476 Q 73.181 50.068 72.824 53.02 Q 72.624 54.92 72.574 57.72 A 22.345 22.345 0 0 0 72.57 58.119 A 20.543 20.543 0 0 0 73.174 63.12 A 12.415 12.415 0 0 0 73.259 63.442 A 10.631 10.631 0 0 0 75.474 67.62 A 5.558 5.558 0 0 0 78.264 69.339 A 8.364 8.364 0 0 0 80.224 69.62 Q 81.324 69.62 82.374 69.22 Q 83.332 68.855 83.332 68.323 Z M 69.608 48.089 A 34.373 34.373 0 0 0 68.924 52.22 A 59.352 59.352 0 0 0 68.769 54.255 Q 68.622 56.792 68.733 58.973 A 29.818 29.818 0 0 0 68.974 61.57 Q 69.283 63.792 69.877 65.571 A 14.05 14.05 0 0 0 70.974 68.07 A 11.673 11.673 0 0 0 72.106 69.728 A 8.671 8.671 0 0 0 74.574 71.82 A 9.167 9.167 0 0 0 76.411 72.597 A 10.427 10.427 0 0 0 79.424 73.02 Q 83.024 73.02 86.924 71.27 A 21.847 21.847 0 0 0 90.492 69.234 A 27.583 27.583 0 0 0 94.324 65.97 Q 97.824 62.42 100.424 57.12 A 34.053 34.053 0 0 0 102.706 50.953 A 46.68 46.68 0 0 0 103.924 44.62 Q 104.324 41.52 103.924 38.07 A 22.725 22.725 0 0 0 103.87 37.641 A 20.128 20.128 0 0 0 102.124 31.67 Q 100.724 28.72 98.124 26.82 Q 95.524 24.92 91.524 24.92 A 19.514 19.514 0 0 0 90.179 24.966 A 15.676 15.676 0 0 0 82.224 27.67 Q 78.224 30.42 75.374 34.52 Q 72.524 38.62 70.924 43.42 A 56.595 56.595 0 0 0 70.725 44.026 Q 70.048 46.136 69.608 48.089 Z M 101.124 45.32 A 30.144 30.144 0 0 0 101.303 42.188 Q 101.311 40.933 101.224 39.62 A 18.205 18.205 0 0 0 100.497 35.54 A 16.18 16.18 0 0 0 99.974 34.07 Q 98.924 31.52 96.774 29.82 A 7.558 7.558 0 0 0 93.859 28.428 Q 92.769 28.159 91.492 28.125 A 13.976 13.976 0 0 0 91.124 28.12 A 14.586 14.586 0 0 0 86.373 28.872 A 12.94 12.94 0 0 0 82.924 30.67 Q 79.424 33.22 76.924 36.97 Q 74.424 40.72 73.024 44.97 Q 71.624 49.22 71.224 52.72 Q 70.72 56.749 70.956 59.861 A 22.326 22.326 0 0 0 71.074 61.02 A 22.927 22.927 0 0 0 71.516 63.469 Q 71.802 64.653 72.202 65.647 A 11.575 11.575 0 0 0 72.724 66.77 Q 73.924 69.02 75.774 70.12 Q 77.624 71.22 79.824 71.22 Q 82.924 71.32 86.374 69.47 A 22.164 22.164 0 0 0 90.708 66.396 A 27.655 27.655 0 0 0 92.824 64.27 A 29.6 29.6 0 0 0 96.042 59.895 A 38.598 38.598 0 0 0 98.074 56.07 A 35.716 35.716 0 0 0 100.596 48.38 A 42.53 42.53 0 0 0 101.124 45.32 Z M 79.502 66.185 A 1.547 1.547 0 0 0 80.124 66.32 A 4.251 4.251 0 0 0 80.941 66.238 Q 81.552 66.119 82.2 65.825 A 8.662 8.662 0 0 0 83.374 65.17 A 18.15 18.15 0 0 0 83.7 64.95 A 19.695 19.695 0 0 0 86.674 62.42 Q 88.224 60.82 89.424 59.07 A 40.498 40.498 0 0 0 90.146 57.981 Q 90.82 56.926 91.224 56.12 Q 92.424 53.52 93.274 50.97 Q 94.124 48.42 94.524 45.72 A 10.771 10.771 0 0 0 94.541 45.609 Q 94.665 44.814 94.728 43.668 A 40.311 40.311 0 0 0 94.774 42.47 A 18.632 18.632 0 0 0 94.779 42.016 A 17.6 17.6 0 0 0 94.424 38.47 Q 94.024 36.52 93.074 35.17 A 3.016 3.016 0 0 0 91.393 33.972 A 4.231 4.231 0 0 0 90.224 33.82 A 7.496 7.496 0 0 0 89.104 33.904 A 8.092 8.092 0 0 0 86.524 34.77 Q 84.724 35.72 83.224 37.17 Q 81.724 38.62 80.724 40.47 Q 79.724 42.32 79.424 44.22 A 16.569 16.569 0 0 0 79.426 44.536 Q 79.446 45.549 79.596 45.82 A 0.155 0.155 0 0 0 79.724 45.92 Q 79.892 45.92 80.275 44.71 A 25.812 25.812 0 0 0 80.424 44.22 A 9.998 9.998 0 0 1 80.722 43.287 A 11.437 11.437 0 0 1 81.724 41.27 Q 82.624 39.82 83.774 38.62 Q 84.924 37.42 86.224 36.67 Q 86.797 36.339 87.352 36.154 A 4.321 4.321 0 0 1 88.724 35.92 A 1.847 1.847 0 0 1 90.183 36.627 Q 90.7 37.236 91.024 38.37 A 8.537 8.537 0 0 1 91.18 39.016 Q 91.561 40.891 91.366 43.748 A 37.118 37.118 0 0 1 91.224 45.32 A 17.049 17.049 0 0 1 91.168 45.761 Q 91.065 46.513 90.874 47.47 A 36.827 36.827 0 0 1 90.866 47.509 A 40.004 40.004 0 0 1 90.274 50.02 Q 89.924 51.32 89.524 52.57 A 22.12 22.12 0 0 1 89.32 53.176 Q 89.172 53.597 89.024 53.957 A 10.148 10.148 0 0 1 88.724 54.62 A 19.052 19.052 0 0 1 88.693 54.681 Q 88.393 55.275 87.814 56.326 A 149.466 149.466 0 0 1 87.374 57.12 A 33.286 33.286 0 0 1 86.815 58.08 A 38.621 38.621 0 0 1 85.174 60.57 Q 83.924 62.32 82.574 63.62 Q 81.688 64.473 80.952 64.766 A 1.97 1.97 0 0 1 80.224 64.92 A 0.95 0.95 0 0 1 79.683 64.744 Q 79.389 64.545 79.124 64.12 Q 78.679 63.409 78.393 63.409 A 0.217 0.217 0 0 0 78.324 63.42 Q 77.824 63.62 77.924 64.12 A 2.821 2.821 0 0 0 78.049 64.558 A 3.448 3.448 0 0 0 78.324 65.12 Q 78.624 65.62 79.124 65.97 A 2.175 2.175 0 0 0 79.502 66.185 Z" id="2" vector-effect="non-scaling-stroke"/><path d="M 132.124 47.72 A 82.714 82.714 0 0 0 130.256 59.814 A 90.571 90.571 0 0 0 130.224 60.22 A 46.668 46.668 0 0 0 130.085 63.8 A 43.154 43.154 0 0 0 131.024 72.82 Q 131.116 73.004 130.996 73.23 A 0.84 0.84 0 0 1 130.974 73.27 A 0.293 0.293 0 0 1 130.945 73.31 Q 130.805 73.473 130.624 73.02 A 25.219 25.219 0 0 1 128.554 67.591 A 23.038 23.038 0 0 1 128.274 66.32 Q 127.624 62.92 127.624 59.57 Q 127.624 56.22 128.124 52.82 Q 128.624 49.42 129.424 46.12 A 51.92 51.92 0 0 0 129.477 45.904 Q 129.563 45.554 129.72 44.899 A 700.582 700.582 0 0 0 129.824 44.47 Q 130.124 43.22 130.274 41.97 A 9.833 9.833 0 0 0 130.317 41.521 Q 130.386 40.589 130.224 40.02 A 0.667 0.667 0 0 0 130.151 39.851 Q 129.883 39.419 129.027 40.017 A 4.357 4.357 0 0 0 129.024 40.02 A 20.24 20.24 0 0 0 126.026 42.759 A 24.296 24.296 0 0 0 124.774 44.27 A 35.386 35.386 0 0 0 122.913 46.937 A 27.016 27.016 0 0 0 121.624 49.22 A 2.067 2.067 0 0 0 121.577 49.321 Q 121.458 49.598 121.174 50.37 Q 120.824 51.32 120.474 52.42 A 75.731 75.731 0 0 0 119.842 54.504 A 69.677 69.677 0 0 0 119.824 54.57 A 135.976 135.976 0 0 1 119.702 54.994 Q 119.502 55.686 119.424 55.92 Q 118.624 59.02 117.424 61.82 Q 116.224 64.62 115.424 67.02 A 13.811 13.811 0 0 1 115.342 67.282 Q 115.109 68.006 115.024 67.92 Q 114.524 67.92 114.524 67.02 A 25.827 25.827 0 0 1 114.388 64.397 A 23.874 23.874 0 0 1 115.374 57.57 A 290.955 290.955 0 0 1 117.927 49.416 A 320.059 320.059 0 0 1 118.324 48.22 Q 119.324 45.12 120.174 42.07 A 20.567 20.567 0 0 0 120.827 38.456 Q 120.934 37.31 120.934 36.092 A 28.565 28.565 0 0 0 120.924 35.32 A 6.287 6.287 0 0 1 120.919 35.078 Q 120.919 32.634 122.826 30.278 A 12.029 12.029 0 0 1 122.874 30.22 Q 124.924 27.72 129.024 26.02 A 12.745 12.745 0 0 1 130.982 25.375 Q 132.097 25.111 133.139 25.111 A 8.079 8.079 0 0 1 133.524 25.12 A 10.969 10.969 0 0 1 136.738 25.745 A 10.199 10.199 0 0 1 137.424 26.02 Q 139.224 26.82 140.624 28.32 Q 142.024 29.82 142.924 31.62 Q 143.524 30.52 144.724 29.27 A 11.404 11.404 0 0 1 147.057 27.417 A 13.137 13.137 0 0 1 147.574 27.12 A 13.272 13.272 0 0 1 150.152 26.059 A 15.833 15.833 0 0 1 151.274 25.77 Q 153.324 25.32 155.824 25.72 A 8.633 8.633 0 0 1 157.754 26.267 A 7.262 7.262 0 0 1 158.974 26.92 Q 160.324 27.82 161.374 28.97 A 11.52 11.52 0 0 1 162.412 30.28 A 9.21 9.21 0 0 1 163.024 31.32 A 33.081 33.081 0 0 1 163.401 32.098 Q 163.727 32.795 163.924 33.32 A 21.955 21.955 0 0 1 164.86 37.521 A 28.301 28.301 0 0 1 165.074 40.72 A 35.211 35.211 0 0 1 165.076 41.149 Q 165.076 43.192 164.836 45.031 A 23.136 23.136 0 0 1 164.224 48.12 Q 162.724 53.52 160.674 57.72 A 44.932 44.932 0 0 0 159.326 60.743 Q 158.361 63.158 157.924 65.22 A 22.288 22.288 0 0 1 157.852 65.478 Q 157.617 66.3 157.528 66.32 A 0.02 0.02 0 0 1 157.524 66.32 A 0.585 0.585 0 0 1 157.347 66.295 Q 157.111 66.221 157.074 65.92 Q 157.024 65.52 156.924 65.12 A 9.497 9.497 0 0 1 156.884 64.428 Q 156.842 62.507 157.474 59.77 Q 158.224 56.52 159.224 52.77 Q 160.224 49.02 161.024 45.12 Q 161.735 41.653 161.735 38.621 A 25.177 25.177 0 0 0 161.724 37.87 Q 161.624 34.52 160.224 32.02 A 6.561 6.561 0 0 0 157.439 29.383 A 9.807 9.807 0 0 0 155.424 28.62 Q 152.724 27.92 150.674 28.57 A 23.081 23.081 0 0 0 149.115 29.123 Q 148.353 29.426 147.709 29.757 A 12.392 12.392 0 0 0 147.224 30.02 Q 145.124 31.42 144.524 32.97 Q 143.924 34.52 143.924 35.92 A 13.841 13.841 0 0 1 147.72 31.468 A 13.502 13.502 0 0 1 148.424 30.97 A 6.684 6.684 0 0 1 152.188 29.848 Q 152.984 29.848 153.834 30.014 A 10.913 10.913 0 0 1 155.024 30.32 Q 157.524 31.12 158.574 33.32 A 11.878 11.878 0 0 1 159.634 37.058 A 14.285 14.285 0 0 1 159.724 38.22 A 19.452 19.452 0 0 1 159.737 38.94 A 19.933 19.933 0 0 1 159.174 43.62 A 28.71 28.71 0 0 1 158.651 45.518 Q 158.36 46.441 158.032 47.227 A 14.593 14.593 0 0 1 157.624 48.12 A 8.904 8.904 0 0 1 157.575 48.214 Q 157.449 48.461 157.124 49.07 A 2.286 2.286 0 0 1 156.957 49.34 Q 156.671 49.732 156.34 49.732 A 0.592 0.592 0 0 1 156.224 49.72 A 0.039 0.039 0 0 1 156.191 49.692 Q 156.139 49.582 156.167 49.04 A 11.408 11.408 0 0 1 156.174 48.92 Q 156.224 48.12 156.224 47.72 A 12.564 12.564 0 0 0 156.448 46.593 Q 156.537 46.013 156.591 45.362 A 21.746 21.746 0 0 0 156.624 44.92 A 34.913 34.913 0 0 0 156.69 42.742 A 38.173 38.173 0 0 0 156.674 41.62 A 34.869 34.869 0 0 0 156.424 38.323 L 156.424 38.32 Q 156.224 36.72 155.824 35.62 A 4.212 4.212 0 0 0 155.441 34.812 Q 154.983 34.074 154.274 33.77 A 3.833 3.833 0 0 0 152.748 33.458 Q 152.398 33.458 152.035 33.518 A 4.744 4.744 0 0 0 152.024 33.52 A 7.787 7.787 0 0 0 149.854 34.229 A 8.798 8.798 0 0 0 149.674 34.32 A 11.529 11.529 0 0 0 148.612 34.944 A 8.536 8.536 0 0 0 147.724 35.62 A 15.924 15.924 0 0 0 146.621 36.661 Q 145.383 37.956 145.024 39.07 Q 144.531 40.596 144.233 42.558 A 30.776 30.776 0 0 0 144.224 42.62 A 19.35 19.35 0 0 1 146.957 39.09 A 21.485 21.485 0 0 1 147.174 38.87 Q 148.924 37.12 150.624 36.02 A 4.511 4.511 0 0 1 151.12 35.831 Q 151.71 35.649 152.174 35.72 Q 152.824 35.82 153.274 36.27 A 2.591 2.591 0 0 1 153.894 37.28 A 3.051 3.051 0 0 1 153.924 37.37 A 15.522 15.522 0 0 1 154.059 37.836 Q 154.161 38.208 154.224 38.52 A 25.652 25.652 0 0 1 154.321 40.143 Q 154.36 41.577 154.217 42.84 A 14.488 14.488 0 0 1 153.974 44.32 Q 153.424 46.82 152.674 49.47 Q 151.924 52.12 151.474 55.37 A 20.013 20.013 0 0 0 151.318 57.027 Q 151.175 59.644 151.581 63.069 A 54.035 54.035 0 0 0 151.624 63.42 A 18.429 18.429 0 0 0 152.792 67.807 A 16.245 16.245 0 0 0 153.724 69.72 Q 155.324 72.52 157.724 73.22 Q 158.424 73.42 158.074 73.52 A 3.924 3.924 0 0 1 157.889 73.568 Q 157.708 73.61 157.58 73.618 A 0.927 0.927 0 0 1 157.524 73.62 A 6.662 6.662 0 0 1 154.731 72.635 A 8.196 8.196 0 0 1 154.124 72.22 Q 152.524 71.02 151.274 69.22 A 17.226 17.226 0 0 1 149.377 65.629 A 19.329 19.329 0 0 1 149.224 65.22 A 14.949 14.949 0 0 1 148.359 61.37 A 13.918 13.918 0 0 1 148.324 60.82 A 34.832 34.832 0 0 1 148.245 58.503 Q 148.245 55.263 148.874 52.27 Q 149.724 48.22 150.524 45.32 Q 150.714 44.56 150.949 43.393 A 80.637 80.637 0 0 0 150.974 43.27 Q 151.182 42.228 151.182 41.43 A 5.586 5.586 0 0 0 151.174 41.12 A 2.082 2.082 0 0 0 151.121 40.745 Q 150.985 40.185 150.524 40.07 Q 149.987 39.936 148.809 40.962 A 12.333 12.333 0 0 0 148.524 41.22 Q 146.524 43.02 145.024 45.12 Q 143.524 47.22 142.824 49.82 Q 140.524 58.12 136.224 65.72 Q 136.024 66.12 135.724 66.47 A 2.387 2.387 0 0 1 135.64 66.563 Q 135.409 66.805 135.324 66.72 Q 135.135 66.72 135.213 66.273 A 2.423 2.423 0 0 1 135.224 66.22 L 135.424 65.22 Q 136.024 61.72 136.924 58.42 Q 137.824 55.12 138.674 51.67 Q 139.524 48.22 140.174 44.57 Q 140.824 40.92 140.924 36.72 Q 140.724 35.32 140.374 33.82 A 5.208 5.208 0 0 0 139.977 32.736 Q 139.487 31.728 138.505 30.537 A 18.795 18.795 0 0 0 138.324 30.32 A 7.484 7.484 0 0 0 136.511 28.838 A 6.187 6.187 0 0 0 133.624 28.02 A 20.512 20.512 0 0 0 132.964 28.006 Q 131.228 27.998 129.947 28.307 A 7.388 7.388 0 0 0 129.224 28.52 A 7.011 7.011 0 0 0 128.159 28.911 Q 127.654 29.142 127.121 29.466 A 12.439 12.439 0 0 0 126.874 29.62 Q 125.624 30.42 124.574 31.52 Q 123.524 32.62 122.874 34.07 Q 122.243 35.477 122.507 37.12 A 6.61 6.61 0 0 0 122.524 37.22 Q 123.624 35.22 125.074 33.32 Q 126.524 31.42 128.824 30.42 Q 129.524 30.12 130.624 29.87 Q 131.724 29.62 132.924 29.57 A 6.405 6.405 0 0 1 133.19 29.564 Q 134.253 29.564 135.315 29.917 A 7.258 7.258 0 0 1 135.324 29.92 A 4.374 4.374 0 0 1 137.012 30.969 A 5.532 5.532 0 0 1 137.424 31.42 A 11.986 11.986 0 0 1 138.246 32.572 Q 138.625 33.182 138.852 33.75 A 4.589 4.589 0 0 1 139.174 35.02 Q 139.324 36.62 139.224 38.22 A 28.913 28.913 0 0 1 138.678 42.208 A 25.174 25.174 0 0 1 138.324 43.67 Q 137.624 46.22 136.524 48.52 Q 136.424 48.82 136.024 49.47 Q 135.624 50.12 135.424 50.12 A 0.239 0.239 0 0 1 135.33 50.025 Q 135.234 49.866 135.191 49.475 A 4.833 4.833 0 0 1 135.174 49.27 Q 135.124 48.52 135.324 48.22 Q 135.4 47.378 135.535 45.92 A 3370.072 3370.072 0 0 1 135.624 44.97 Q 135.824 42.82 135.874 40.47 A 31.184 31.184 0 0 0 135.881 39.807 Q 135.881 38.701 135.799 37.689 A 21.113 21.113 0 0 0 135.624 36.17 A 7.148 7.148 0 0 0 135.392 35.139 Q 135.23 34.618 134.995 34.216 A 2.832 2.832 0 0 0 134.324 33.42 Q 133.426 32.722 131.632 33.019 A 7.82 7.82 0 0 0 131.624 33.02 Q 129.824 33.32 128.424 34.42 Q 127.171 35.404 126.279 36.308 A 15.444 15.444 0 0 0 126.074 36.52 Q 125.124 37.52 124.524 38.57 Q 123.924 39.62 123.474 40.87 Q 123.087 41.944 122.811 43.351 A 25.061 25.061 0 0 0 122.724 43.82 Q 123.924 41.52 125.524 39.52 Q 127.124 37.52 129.424 36.12 A 8.957 8.957 0 0 1 130.069 35.713 Q 131.214 35.062 131.924 35.22 A 1.632 1.632 0 0 1 133.044 36.044 A 2.18 2.18 0 0 1 133.174 36.32 A 4.112 4.112 0 0 1 133.382 37.075 Q 133.505 37.751 133.474 38.62 Q 133.424 40.02 133.324 41.22 A 65.544 65.544 0 0 1 132.897 44.097 A 72.574 72.574 0 0 1 132.824 44.52 A 40.144 40.144 0 0 1 132.364 46.763 A 34.217 34.217 0 0 1 132.124 47.72 Z M 109.989 71.206 A 20.713 20.713 0 0 0 112.424 73.12 A 4.761 4.761 0 0 1 112.481 73.149 Q 112.568 73.194 112.664 73.248 A 8.456 8.456 0 0 1 112.874 73.37 A 0.599 0.599 0 0 0 112.888 73.378 Q 113.078 73.486 113.24 73.387 A 0.454 0.454 0 0 0 113.324 73.32 A 0.345 0.345 0 0 0 113.338 73.304 Q 113.508 73.112 113.124 72.92 Q 111.124 71.02 109.974 68.62 Q 108.824 66.22 108.324 63.72 Q 107.824 61.22 107.974 58.67 A 34.958 34.958 0 0 1 108.042 57.723 A 30.808 30.808 0 0 1 108.624 53.82 Q 109.424 50.12 110.874 46.47 Q 112.324 42.82 113.324 39.27 A 32.009 32.009 0 0 0 113.667 37.944 A 28.036 28.036 0 0 0 114.424 32.32 Q 114.524 28.92 112.724 25.72 A 3.442 3.442 0 0 0 112.658 25.614 Q 112.481 25.343 112.342 25.258 A 0.23 0.23 0 0 0 112.224 25.22 A 0.046 0.046 0 0 0 112.208 25.223 Q 112.124 25.253 112.124 25.62 A 15.149 15.149 0 0 1 112.341 28.198 Q 112.341 29.911 111.974 31.72 A 47.694 47.694 0 0 1 111.617 33.329 A 53.804 53.804 0 0 1 110.174 38.27 A 856.605 856.605 0 0 1 109.884 39.111 A 938.77 938.77 0 0 1 107.774 45.17 Q 106.524 48.72 105.724 52.32 Q 105.124 55.02 104.974 57.82 Q 104.824 60.62 105.424 63.32 A 14.466 14.466 0 0 0 105.844 64.823 A 16.053 16.053 0 0 0 107.674 68.52 Q 108.602 69.926 109.989 71.206 Z M 119.024 39.82 Q 117.924 43.62 116.074 47.32 A 67.572 67.572 0 0 0 114.06 51.718 A 54.956 54.956 0 0 0 113.024 54.42 Q 112.941 54.584 112.758 54.984 A 74.008 74.008 0 0 0 112.674 55.17 A 1.381 1.381 0 0 1 112.569 55.362 Q 112.352 55.688 112.046 55.625 A 0.555 0.555 0 0 1 112.024 55.62 Q 111.83 55.523 111.777 55.004 A 3.088 3.088 0 0 1 111.774 54.97 Q 111.724 54.42 111.724 54.12 A 12.499 12.499 0 0 1 111.777 53.017 Q 111.895 51.692 112.274 49.87 A 50.079 50.079 0 0 1 112.675 48.088 Q 112.88 47.256 113.091 46.548 A 21.818 21.818 0 0 1 113.424 45.52 A 6.51 6.51 0 0 0 113.511 45.23 Q 113.71 44.521 114.104 42.777 A 183.784 183.784 0 0 0 114.174 42.47 Q 114.724 40.02 115.174 37.12 A 59.056 59.056 0 0 0 115.68 32.883 A 52.255 52.255 0 0 0 115.774 31.52 Q 115.917 28.944 115.286 27.733 A 2.706 2.706 0 0 0 115.224 27.62 A 3.124 3.124 0 0 1 115.156 27.495 Q 114.899 26.993 115.142 26.929 A 0.323 0.323 0 0 1 115.224 26.92 Q 115.524 26.92 116.024 27.42 A 8.336 8.336 0 0 1 117.728 29.632 A 9.745 9.745 0 0 1 117.974 30.12 Q 118.724 31.72 119.074 33.47 A 15.392 15.392 0 0 1 119.38 36.494 A 14.483 14.483 0 0 1 119.374 36.92 Q 119.324 38.62 119.024 39.82 Z M 160.724 73.22 L 160.224 73.22 A 1.034 1.034 0 0 1 160.074 73.208 Q 159.92 73.186 159.724 73.12 Q 158.463 72.85 157.04 72.053 A 14.558 14.558 0 0 1 156.724 71.87 A 4.987 4.987 0 0 1 155.484 70.8 Q 154.668 69.843 154.024 68.32 Q 153.624 67.32 153.424 65.72 A 25.423 25.423 0 0 1 153.228 63.091 A 22.858 22.858 0 0 1 153.224 62.62 Q 153.224 61.12 153.424 60.02 A 4.665 4.665 0 0 1 153.495 59.69 Q 153.67 59.012 153.958 59.012 A 0.269 0.269 0 0 1 154.024 59.02 A 0.076 0.076 0 0 1 154.074 59.046 Q 154.153 59.121 154.257 59.422 A 4.384 4.384 0 0 1 154.274 59.47 A 5.703 5.703 0 0 1 154.403 59.925 Q 154.454 60.132 154.496 60.363 A 9.552 9.552 0 0 1 154.524 60.52 L 154.724 61.72 Q 154.824 62.32 154.824 62.62 Q 155.024 64.02 155.324 65.37 Q 155.624 66.72 156.124 67.82 A 7.902 7.902 0 0 0 156.724 69.161 Q 157.076 69.794 157.568 70.452 A 15.011 15.011 0 0 0 157.974 70.97 Q 159.075 72.317 160.01 72.697 A 2.085 2.085 0 0 0 160.424 72.82 A 1.733 1.733 0 0 1 160.545 72.874 Q 160.897 73.047 160.724 73.22 Z M 133.862 73.165 A 4.593 4.593 0 0 0 133.824 73.02 A 3.302 3.302 0 0 1 133.785 72.874 Q 133.624 72.19 133.624 71.02 L 133.624 67.82 Q 133.624 66.42 133.724 65.17 A 26.089 26.089 0 0 0 133.75 64.812 Q 133.824 63.695 133.824 62.32 L 133.824 61.57 Q 133.824 61.02 133.774 60.42 A 51.667 51.667 0 0 0 133.742 60.06 Q 133.708 59.679 133.674 59.37 Q 133.624 58.92 133.524 58.92 Q 133.191 58.837 132.928 59.445 A 3.395 3.395 0 0 0 132.824 59.72 Q 132.524 60.62 132.274 61.97 A 47.527 47.527 0 0 0 132.093 63.011 A 57.779 57.779 0 0 0 131.824 64.87 Q 131.624 66.42 131.624 67.52 Q 131.548 69.627 131.813 70.8 A 3.77 3.77 0 0 0 132.024 71.47 Q 132.524 72.62 133.024 73.22 Q 133.324 73.72 133.824 73.72 Q 134.002 73.72 133.862 73.165 Z M 116.036 73.577 A 0.332 0.332 0 0 0 116.224 73.52 A 0.419 0.419 0 0 0 116.24 73.511 Q 116.396 73.424 116.344 73.268 A 0.371 0.371 0 0 0 116.324 73.22 Q 116.258 73.089 116.192 73.001 A 0.731 0.731 0 0 0 116.124 72.92 Q 115.324 71.92 114.724 70.92 A 14.056 14.056 0 0 1 114.555 70.631 Q 114.302 70.185 114.049 69.668 A 25.031 25.031 0 0 1 113.524 68.52 Q 113.124 67.62 112.824 66.67 Q 112.524 65.72 112.124 64.62 A 0.915 0.915 0 0 1 112.091 64.567 Q 111.903 64.239 111.674 63.32 A 5.604 5.604 0 0 0 111.656 63.253 Q 111.41 62.317 111.024 62.22 A 0.244 0.244 0 0 0 110.959 62.229 Q 110.707 62.297 110.574 62.92 A 5.561 5.561 0 0 0 110.502 63.334 Q 110.424 63.911 110.424 64.67 Q 110.424 65.72 110.624 66.82 A 8.519 8.519 0 0 0 110.704 67.214 Q 110.798 67.617 110.922 67.958 A 4.275 4.275 0 0 0 111.224 68.62 Q 111.88 69.933 112.558 70.771 A 5.703 5.703 0 0 0 113.274 71.52 Q 114.324 72.42 115.424 73.22 A 2.349 2.349 0 0 0 115.554 73.342 Q 115.829 73.577 116.036 73.577 Z" id="3" vector-effect="non-scaling-stroke"/><path d="M 175.224 73.02 Q 173.324 71.02 172.324 68.57 Q 171.324 66.12 170.924 63.57 A 22.05 22.05 0 0 1 170.657 60.148 A 22.52 22.52 0 0 1 170.724 58.42 A 28.906 28.906 0 0 1 171.233 54.763 A 25.229 25.229 0 0 1 171.524 53.52 Q 172.424 49.92 173.824 46.32 Q 175.224 42.72 176.224 39.17 A 31.06 31.06 0 0 0 177.322 33.048 A 28.455 28.455 0 0 0 177.374 32.17 A 13.589 13.589 0 0 0 177.386 31.58 Q 177.386 28.646 176.111 25.821 A 16.151 16.151 0 0 0 175.924 25.42 Q 175.624 24.92 175.524 24.92 A 0.092 0.092 0 0 0 175.471 24.934 Q 175.435 24.959 175.426 25.023 A 0.346 0.346 0 0 0 175.424 25.07 A 0.37 0.37 0 0 0 175.446 25.202 A 0.332 0.332 0 0 0 175.524 25.32 Q 175.797 28.058 175.238 30.962 A 22.604 22.604 0 0 1 175.124 31.52 Q 174.424 34.72 173.324 38.07 Q 172.224 41.42 170.874 44.97 Q 169.524 48.52 168.624 52.22 Q 167.924 54.92 167.674 57.72 Q 167.424 60.52 168.024 63.27 A 16.013 16.013 0 0 0 170.199 68.481 A 17.978 17.978 0 0 0 170.224 68.52 A 14.449 14.449 0 0 0 172.319 71.063 Q 173.383 72.102 174.736 73.058 A 23.612 23.612 0 0 0 174.824 73.12 A 0.885 0.885 0 0 0 175.277 73.361 A 1.094 1.094 0 0 0 175.324 73.37 Q 175.624 73.42 175.224 73.02 Z M 182.622 53.892 A 34.352 34.352 0 0 0 182.324 55.12 Q 181.424 58.32 180.124 61.57 A 583.144 583.144 0 0 1 179.34 63.518 Q 178.963 64.451 178.616 65.3 A 326.25 326.25 0 0 1 177.824 67.22 L 177.524 67.82 Q 177.424 68.02 177.224 68.02 A 0.467 0.467 0 0 1 177.177 68.018 Q 176.983 67.999 176.909 67.811 A 0.625 0.625 0 0 1 176.874 67.67 A 5.3 5.3 0 0 1 176.839 67.373 A 4.142 4.142 0 0 1 176.824 67.02 Q 176.624 61.92 178.024 57.07 Q 179.424 52.22 181.124 47.12 Q 182.124 44.02 182.974 40.77 A 24.861 24.861 0 0 0 183.492 38.252 A 29.843 29.843 0 0 0 183.824 33.72 Q 183.744 33.403 183.853 33.337 A 0.133 0.133 0 0 1 183.924 33.32 A 0.233 0.233 0 0 1 183.964 33.324 Q 184.115 33.35 184.361 33.567 A 3.516 3.516 0 0 1 184.524 33.72 A 6.642 6.642 0 0 1 184.908 34.42 Q 185.353 35.357 185.555 36.505 A 11.918 11.918 0 0 1 185.724 38.57 Q 185.724 41.52 185.124 44.57 Q 184.524 47.62 183.624 50.47 A 110.042 110.042 0 0 0 183.584 50.596 Q 182.992 52.477 182.622 53.892 Z M 181.924 40.02 A 12.718 12.718 0 0 0 182.15 38.713 Q 182.247 37.923 182.274 37.02 A 16.59 16.59 0 0 0 182.281 36.532 Q 182.281 35.178 182.062 33.761 A 20.082 20.082 0 0 0 182.024 33.52 Q 181.724 31.72 180.974 30.07 A 9.781 9.781 0 0 0 179.458 27.686 A 9.07 9.07 0 0 0 179.024 27.22 Q 178.424 26.82 178.324 26.82 A 0.37 0.37 0 0 0 178.24 26.829 Q 177.971 26.891 178.324 27.42 A 4.273 4.273 0 0 1 178.597 28.245 Q 178.882 29.476 178.774 31.47 Q 178.624 34.22 178.124 37.17 Q 177.625 40.108 177.078 42.452 A 62.879 62.879 0 0 1 177.074 42.47 A 557.217 557.217 0 0 0 176.883 43.286 Q 176.535 44.785 176.438 45.248 A 9.288 9.288 0 0 0 176.424 45.32 Q 175.891 46.689 175.445 48.58 A 41.521 41.521 0 0 0 175.174 49.82 A 36.945 36.945 0 0 0 174.883 51.41 Q 174.632 52.998 174.624 54.144 A 10.715 10.715 0 0 0 174.624 54.22 A 0.617 0.617 0 0 0 174.58 54.345 Q 174.529 54.548 174.524 54.935 A 6.687 6.687 0 0 0 174.524 55.02 A 1.828 1.828 0 0 0 174.537 55.251 Q 174.587 55.641 174.824 55.72 A 0.092 0.092 0 0 0 174.875 55.698 Q 174.973 55.625 175.166 55.315 A 6.894 6.894 0 0 0 175.224 55.22 A 8.065 8.065 0 0 1 175.367 54.989 Q 175.516 54.759 175.635 54.617 A 1.529 1.529 0 0 1 175.724 54.52 A 71.138 71.138 0 0 0 177.915 50.286 A 85.25 85.25 0 0 0 179.174 47.52 A 67.232 67.232 0 0 0 181.603 41.063 A 60.593 60.593 0 0 0 181.924 40.02 Z M 182.274 17.37 A 26.059 26.059 0 0 0 182.746 17.433 Q 183.444 17.52 183.824 17.52 A 10.527 10.527 0 0 0 184.562 17.495 Q 187.392 17.296 188.724 15.52 A 6.568 6.568 0 0 0 189.081 14.991 Q 189.735 13.916 190.015 12.541 A 11.146 11.146 0 0 0 190.224 10.32 A 4.953 4.953 0 0 0 190.213 10.003 Q 190.161 9.191 189.844 8.341 A 8.365 8.365 0 0 0 189.174 6.97 A 7.3 7.3 0 0 0 187.98 5.472 A 8.652 8.652 0 0 0 186.124 4.12 Q 186.024 4.02 185.774 3.87 A 1.436 1.436 0 0 0 185.663 3.81 Q 185.478 3.72 185.324 3.72 Q 185.224 3.82 185.524 4.17 Q 185.683 4.356 185.814 4.528 A 5.638 5.638 0 0 1 186.024 4.82 Q 186.727 5.734 186.935 7.291 A 10.785 10.785 0 0 1 187.024 8.72 A 9.351 9.351 0 0 1 187.017 9.083 Q 186.986 9.858 186.826 10.524 A 5.092 5.092 0 0 1 186.124 12.17 A 10.701 10.701 0 0 1 185.418 13.114 A 8.405 8.405 0 0 1 184.124 14.37 A 18.038 18.038 0 0 1 183.644 14.729 Q 182.823 15.32 182.124 15.67 A 6.216 6.216 0 0 0 181.882 15.797 Q 181.224 16.163 181.224 16.42 Q 181.224 17.045 181.864 17.273 A 2.113 2.113 0 0 0 182.274 17.37 Z M 180.124 13.52 Q 178.924 14.02 178.924 12.92 A 2.235 2.235 0 0 1 179.193 11.871 A 3.133 3.133 0 0 1 179.524 11.37 Q 180.124 10.62 180.674 9.72 A 5.593 5.593 0 0 0 181.317 8.17 A 6.677 6.677 0 0 0 181.424 7.67 A 2.785 2.785 0 0 0 181.463 7.227 Q 181.476 6.207 180.824 4.82 A 3.007 3.007 0 0 0 180.622 4.414 Q 180.428 4.086 180.124 3.72 Q 179.624 3.12 179.824 3.02 Q 180.019 2.922 180.642 3.158 A 5.716 5.716 0 0 1 180.674 3.17 Q 181.205 3.374 181.435 3.478 A 2.512 2.512 0 0 1 181.524 3.52 Q 183.224 4.32 184.074 5.92 Q 184.651 7.008 184.836 7.911 A 4.036 4.036 0 0 1 184.924 8.72 A 3.823 3.823 0 0 1 183.672 11.609 A 5.054 5.054 0 0 1 183.374 11.87 A 9.012 9.012 0 0 1 181.684 12.958 A 7.384 7.384 0 0 1 180.124 13.52 Z M 175.374 67.22 A 41.874 41.874 0 0 0 175.587 67.931 Q 175.817 68.67 176.024 69.22 A 11.907 11.907 0 0 0 176.41 70.229 A 9.045 9.045 0 0 0 176.974 71.32 Q 177.524 72.22 178.224 73.02 A 0.121 0.121 0 0 1 178.316 73.062 Q 178.334 73.082 178.349 73.112 A 0.403 0.403 0 0 1 178.374 73.17 A 0.496 0.496 0 0 1 178.377 73.18 Q 178.413 73.296 178.352 73.316 A 0.093 0.093 0 0 1 178.324 73.32 A 0.846 0.846 0 0 1 178.169 73.304 Q 177.977 73.268 177.705 73.151 A 5.308 5.308 0 0 1 177.424 73.02 Q 176.024 72.52 175.174 71.72 Q 174.324 70.92 173.724 68.92 A 6.063 6.063 0 0 1 173.617 68.611 Q 173.396 67.907 173.274 66.97 Q 173.124 65.82 173.124 64.77 A 12.914 12.914 0 0 1 173.133 64.259 Q 173.147 63.903 173.182 63.594 A 5.912 5.912 0 0 1 173.274 63.02 A 2.395 2.395 0 0 1 173.295 62.929 Q 173.45 62.32 173.824 62.32 A 0.089 0.089 0 0 1 173.866 62.332 Q 174.018 62.414 174.223 63.074 A 10.409 10.409 0 0 1 174.324 63.42 A 28.766 28.766 0 0 0 174.344 63.495 Q 174.557 64.267 174.718 64.679 A 2.979 2.979 0 0 0 174.824 64.92 A 20.53 20.53 0 0 0 174.995 65.759 A 24.278 24.278 0 0 0 175.374 67.22 Z M 177.273 7.689 A 2.033 2.033 0 0 0 177.224 8.12 A 1.776 1.776 0 0 0 177.235 8.319 Q 177.26 8.542 177.341 8.784 A 3.34 3.34 0 0 0 177.524 9.22 A 1.374 1.374 0 0 0 177.56 9.287 Q 177.758 9.635 178.107 9.755 A 1.267 1.267 0 0 0 178.524 9.82 A 0.689 0.689 0 0 0 178.934 9.688 Q 179.159 9.527 179.324 9.17 A 5.689 5.689 0 0 0 179.379 9.047 Q 179.539 8.677 179.594 8.394 A 1.435 1.435 0 0 0 179.624 8.12 A 1.903 1.903 0 0 0 179.601 7.832 Q 179.569 7.626 179.494 7.399 A 4.042 4.042 0 0 0 179.324 6.97 A 1.964 1.964 0 0 0 179.241 6.811 Q 179.154 6.659 179.052 6.554 A 0.716 0.716 0 0 0 178.524 6.32 A 1.402 1.402 0 0 0 178.405 6.325 Q 178.015 6.358 177.763 6.614 A 1.243 1.243 0 0 0 177.524 6.97 A 4.325 4.325 0 0 0 177.405 7.252 Q 177.318 7.481 177.273 7.689 Z" id="4" vector-effect="non-scaling-stroke"/><path d="M 196.57 70.902 A 12.525 12.525 0 0 0 202.124 72.62 Q 202.868 72.62 203.058 72.731 A 0.107 0.107 0 0 1 203.124 72.82 A 0.138 0.138 0 0 1 203.118 72.859 Q 203.101 72.916 203.036 72.973 A 0.609 0.609 0 0 1 202.974 73.02 Q 202.852 73.101 202.433 73.116 A 5.78 5.78 0 0 1 202.224 73.12 Q 200.024 73.22 197.824 72.92 Q 195.624 72.62 193.724 71.57 A 10.321 10.321 0 0 1 192.663 70.896 A 11.42 11.42 0 0 1 190.374 68.67 A 8.307 8.307 0 0 1 189.994 68.144 Q 188.842 66.411 188.324 63.82 A 33.773 33.773 0 0 1 187.554 56.625 A 35.337 35.337 0 0 1 187.624 54.42 Q 187.924 49.62 189.424 45.12 Q 190.924 40.62 193.574 36.57 Q 196.224 32.52 200.124 29.42 Q 203.024 27.02 206.824 26.17 Q 209.216 25.635 211.51 25.635 A 19.077 19.077 0 0 1 214.174 25.82 A 16.136 16.136 0 0 1 215.473 26.057 A 13.35 13.35 0 0 1 220.374 28.22 Q 223.024 30.12 223.624 33.32 A 3.658 3.658 0 0 1 223.64 33.364 Q 223.915 34.128 223.624 34.42 Q 223.379 34.42 223.134 33.753 A 5.823 5.823 0 0 1 223.024 33.42 A 14.786 14.786 0 0 0 221.911 31.889 A 11.457 11.457 0 0 0 219.824 29.92 Q 218.024 28.62 215.974 28.07 Q 213.924 27.52 211.824 27.62 A 20.086 20.086 0 0 0 210.54 27.722 A 16.736 16.736 0 0 0 207.924 28.22 Q 204.324 29.22 202.124 30.97 Q 199.924 32.72 197.724 35.32 Q 194.224 39.52 192.574 44.77 A 51.267 51.267 0 0 0 192.548 44.852 A 46.704 46.704 0 0 0 190.524 55.22 Q 190.324 57.72 190.624 60.37 Q 190.924 63.02 192.024 65.92 A 8.925 8.925 0 0 0 193.733 68.663 A 11.155 11.155 0 0 0 196.024 70.57 A 14.864 14.864 0 0 0 196.57 70.902 Z M 202.038 47.627 A 26.034 26.034 0 0 0 200.924 52.02 Q 200.422 54.716 200.176 56.881 A 38.636 38.636 0 0 0 199.974 59.27 A 14.045 14.045 0 0 0 199.969 59.355 Q 199.894 61.048 200.252 62.291 A 4.94 4.94 0 0 0 200.974 63.82 A 3.722 3.722 0 0 0 201.9 64.723 Q 202.52 65.148 203.357 65.378 A 7.678 7.678 0 0 0 204.824 65.62 Q 207.524 65.82 212.424 64.62 Q 213.124 64.42 213.224 64.52 A 0.286 0.286 0 0 1 213.251 64.536 Q 213.385 64.622 213.227 64.774 A 0.795 0.795 0 0 1 213.174 64.82 Q 212.924 65.02 212.524 65.22 Q 210.924 66.22 209.074 66.82 A 14.523 14.523 0 0 1 208.497 66.994 A 12.719 12.719 0 0 1 205.424 67.47 A 14.316 14.316 0 0 1 205.026 67.476 Q 204.804 67.476 204.585 67.469 A 12.138 12.138 0 0 1 202.024 67.12 A 6.636 6.636 0 0 1 201.071 66.807 A 5.061 5.061 0 0 1 199.424 65.72 Q 197.424 63.72 197.124 60.17 Q 197.041 59.192 197.042 58.202 A 25.048 25.048 0 0 1 197.624 52.92 Q 198.224 49.92 199.124 46.97 Q 200.024 44.02 201.474 41.47 A 23.333 23.333 0 0 1 201.657 41.154 A 20.869 20.869 0 0 1 204.874 36.97 Q 206.824 35.02 209.424 34.02 A 7.249 7.249 0 0 1 210.086 33.801 A 7.952 7.952 0 0 1 212.224 33.52 Q 213.724 33.52 214.924 33.92 A 6.327 6.327 0 0 1 215.236 34.033 A 5.369 5.369 0 0 1 216.974 35.12 Q 217.824 35.92 218.024 37.02 Q 218.124 38.12 217.724 39.17 Q 217.324 40.22 216.574 41.12 A 8.701 8.701 0 0 1 216.335 41.394 A 7.587 7.587 0 0 1 214.924 42.62 A 4.886 4.886 0 0 1 214.234 43.006 A 3.657 3.657 0 0 1 213.124 43.32 Q 212.578 43.456 212.334 43.36 A 0.29 0.29 0 0 1 212.174 43.22 A 0.364 0.364 0 0 1 212.152 43.169 Q 212.081 42.948 212.383 42.785 A 1.346 1.346 0 0 1 212.524 42.72 Q 212.924 42.62 213.574 42.07 Q 214.224 41.52 214.774 40.82 A 4.961 4.961 0 0 0 214.939 40.596 A 5.33 5.33 0 0 0 215.624 39.22 Q 215.924 38.32 215.624 37.42 Q 215.47 36.961 214.76 36.677 A 4.123 4.123 0 0 0 214.274 36.52 A 2.692 2.692 0 0 0 214.244 36.513 Q 213.322 36.283 211.678 36.555 A 17.475 17.475 0 0 0 210.824 36.72 Q 209.024 37.22 207.424 38.67 A 14.091 14.091 0 0 0 206.058 40.1 A 17.697 17.697 0 0 0 204.524 42.27 A 25.436 25.436 0 0 0 204.01 43.16 A 28.53 28.53 0 0 0 202.274 46.97 A 29.246 29.246 0 0 0 202.038 47.627 Z M 194.324 48.52 Q 194.324 48.62 194.274 49.02 L 194.174 49.82 A 6.611 6.611 0 0 0 194.132 50.277 A 5.345 5.345 0 0 0 194.124 50.57 Q 194.124 50.92 194.324 50.92 A 0.162 0.162 0 0 0 194.423 50.872 Q 194.601 50.719 194.902 50.076 A 11.752 11.752 0 0 0 194.974 49.92 Q 195.418 48.932 195.423 48.823 A 0.052 0.052 0 0 0 195.424 48.82 Q 198.024 42.82 201.624 38.22 A 6.508 6.508 0 0 0 201.783 38.053 Q 202.041 37.775 202.514 37.229 A 96.422 96.422 0 0 0 202.824 36.87 A 11.05 11.05 0 0 1 203.717 35.95 Q 204.374 35.343 205.224 34.72 A 13.388 13.388 0 0 1 207.044 33.607 A 17.844 17.844 0 0 1 208.824 32.82 Q 210.852 32.047 213.347 32.301 A 13.072 13.072 0 0 1 213.524 32.32 A 8.156 8.156 0 0 1 215.765 32.879 A 6.612 6.612 0 0 1 217.924 34.32 A 4.766 4.766 0 0 1 218.798 35.492 Q 219.415 36.682 219.165 38.109 A 5.315 5.315 0 0 1 219.124 38.32 A 9.833 9.833 0 0 1 218.584 40.229 A 7.547 7.547 0 0 1 217.574 42.02 A 10.2 10.2 0 0 1 216.86 42.86 Q 216.482 43.255 216.11 43.54 A 4.088 4.088 0 0 1 215.324 44.02 A 5.366 5.366 0 0 0 215.163 44.083 Q 214.565 44.329 214.87 44.419 A 0.498 0.498 0 0 0 214.874 44.42 A 3.924 3.924 0 0 0 215.059 44.468 Q 215.239 44.51 215.368 44.518 A 0.927 0.927 0 0 0 215.424 44.52 A 4.596 4.596 0 0 0 216.581 44.261 Q 217.256 44.022 217.974 43.57 Q 219.324 42.72 220.324 41.37 Q 221.324 40.02 221.724 38.32 Q 222.124 36.62 221.424 34.62 Q 220.624 32.52 219.124 31.27 Q 217.624 30.02 215.824 29.47 Q 214.024 28.92 212.174 28.92 A 19.229 19.229 0 0 0 210.863 28.962 Q 210.221 29.006 209.663 29.096 A 9.675 9.675 0 0 0 209.024 29.22 A 22.327 22.327 0 0 0 205.725 30.355 A 16.435 16.435 0 0 0 202.624 32.12 A 16.974 16.974 0 0 0 198.801 35.943 A 16.02 16.02 0 0 0 198.374 36.57 Q 196.724 39.12 195.824 42.17 A 60.944 60.944 0 0 0 194.325 48.514 A 46.131 46.131 0 0 0 194.324 48.52 Z M 214.876 65.831 A 0.169 0.169 0 0 0 214.874 65.82 A 0.308 0.308 0 0 0 214.848 65.751 Q 214.784 65.63 214.624 65.67 Q 214.46 65.711 214.196 65.885 A 4.19 4.19 0 0 0 214.074 65.97 Q 213.724 66.22 213.524 66.32 A 17.889 17.889 0 0 1 209.378 68.462 A 19.986 19.986 0 0 1 209.074 68.57 A 15.291 15.291 0 0 1 205.709 69.31 A 19.241 19.241 0 0 1 203.624 69.42 Q 202.548 69.42 201.191 68.881 A 12.941 12.941 0 0 1 200.074 68.37 Q 198.613 67.622 197.635 66.849 A 8.172 8.172 0 0 1 196.924 66.22 Q 196.524 65.72 196.074 65.27 A 2.257 2.257 0 0 0 195.901 65.113 Q 195.564 64.84 195.324 64.92 Q 194.978 65.266 195.23 65.836 A 2.015 2.015 0 0 0 195.324 66.02 Q 196.824 69.52 199.124 70.52 Q 201.424 71.52 204.024 71.52 A 12.056 12.056 0 0 0 206.783 71.191 A 13.499 13.499 0 0 0 207.074 71.12 Q 208.624 70.72 210.074 70.07 A 12.88 12.88 0 0 0 212.08 68.954 A 11.43 11.43 0 0 0 212.674 68.52 Q 213.824 67.62 214.524 66.62 Q 214.912 66.037 214.876 65.831 Z" id="5" vector-effect="non-scaling-stroke"/><path d="M 217.624 67.42 L 217.724 67.42 L 218.024 67.72 A 7.234 7.234 0 0 0 220.38 69.998 A 10.48 10.48 0 0 0 222.474 70.97 A 9.116 9.116 0 0 0 224.838 71.436 Q 227.047 71.585 229.724 70.82 Q 231.824 70.22 233.424 68.72 Q 235.024 67.22 236.074 65.37 Q 237.124 63.52 237.674 61.52 Q 238.224 59.52 238.324 57.82 A 44.597 44.597 0 0 0 238.352 56.228 A 42.369 42.369 0 0 0 238.174 52.32 Q 237.924 49.62 237.574 47.07 A 154.888 154.888 0 0 1 237.038 42.722 A 140.499 140.499 0 0 1 236.974 42.12 A 25.428 25.428 0 0 1 236.835 39.484 A 23.817 23.817 0 0 1 236.924 37.42 Q 237.065 35.657 237.703 34.491 A 4.37 4.37 0 0 1 238.324 33.62 Q 239.524 32.32 241.274 31.97 Q 242.747 31.675 244.327 32.054 A 8.78 8.78 0 0 1 244.924 32.22 Q 246.824 32.82 248.424 34.12 A 0.988 0.988 0 0 1 248.556 34.199 Q 248.788 34.364 248.733 34.587 A 0.423 0.423 0 0 1 248.724 34.62 A 0.292 0.292 0 0 1 248.72 34.669 Q 248.696 34.806 248.524 34.72 L 248.124 34.52 Q 244.9 33.474 242.928 33.719 A 4.885 4.885 0 0 0 242.374 33.82 Q 240.324 34.32 240.124 37.42 Q 239.944 40.643 240.527 44.867 A 61.609 61.609 0 0 0 240.674 45.87 A 50.115 50.115 0 0 1 241.179 50.846 Q 241.266 52.466 241.266 54.182 A 71.968 71.968 0 0 1 241.224 56.62 Q 241.324 58.62 240.774 61.22 Q 240.224 63.82 238.974 66.27 Q 237.724 68.72 235.674 70.62 Q 233.624 72.52 230.824 73.02 Q 225.524 73.82 222.374 72.42 A 9.519 9.519 0 0 1 219.59 70.577 A 8.568 8.568 0 0 1 217.824 68.12 A 19.684 19.684 0 0 1 217.756 67.913 Q 217.642 67.558 217.626 67.449 A 0.209 0.209 0 0 1 217.624 67.42 Z M 228.624 55.92 Q 228.724 53.92 228.274 50.27 A 46.955 46.955 0 0 1 227.997 47.091 Q 227.864 44.656 227.924 41.82 A 46.532 46.532 0 0 1 228.328 37.33 A 51.676 51.676 0 0 1 228.424 36.67 A 14.265 14.265 0 0 1 229.604 32.805 A 17.276 17.276 0 0 1 230.324 31.42 A 12.024 12.024 0 0 1 232.073 29.048 A 9.59 9.59 0 0 1 234.374 27.27 Q 236.824 25.92 238.624 26.02 L 239.224 26.02 A 1.374 1.374 0 0 1 239.318 26.023 Q 239.459 26.033 239.503 26.075 A 0.06 0.06 0 0 1 239.524 26.12 Q 239.524 26.315 239.429 26.272 A 0.13 0.13 0 0 1 239.424 26.27 A 0.088 0.088 0 0 0 239.399 26.263 Q 239.288 26.243 238.897 26.364 A 8.193 8.193 0 0 0 238.724 26.42 Q 236.924 26.92 235.524 28.07 Q 234.124 29.22 233.124 30.72 A 15.228 15.228 0 0 0 231.542 33.77 A 14.274 14.274 0 0 0 231.524 33.82 A 13.569 13.569 0 0 0 231.106 35.117 Q 230.931 35.782 230.857 36.386 A 7.513 7.513 0 0 0 230.824 36.72 A 47.704 47.704 0 0 0 230.589 39.703 Q 230.42 43.373 230.924 46.32 Q 231.424 49.62 231.724 53.17 A 29.237 29.237 0 0 1 231.828 55.305 Q 231.846 56.951 231.661 58.452 A 19.928 19.928 0 0 1 231.474 59.67 A 13.001 13.001 0 0 1 230.77 62.138 A 9.678 9.678 0 0 1 229.374 64.57 A 5.353 5.353 0 0 1 226.832 66.31 Q 225.971 66.602 224.926 66.697 A 10.741 10.741 0 0 1 224.624 66.72 Q 224.42 66.72 224.146 66.697 A 10.449 10.449 0 0 1 223.874 66.67 A 1.561 1.561 0 0 1 223.721 66.646 Q 223.573 66.614 223.499 66.558 A 0.169 0.169 0 0 1 223.424 66.42 Q 223.424 66.22 224.324 65.72 A 7.556 7.556 0 0 0 226.02 64.665 A 5.5 5.5 0 0 0 227.724 62.22 Q 228.524 59.92 228.624 55.92 Z M 232.724 33.97 A 12.96 12.96 0 0 0 232.48 34.627 Q 232.196 35.466 232.124 36.12 Q 231.824 39.02 232.024 41.77 Q 232.224 44.52 232.674 47.22 Q 233.124 49.92 233.624 52.47 Q 234.124 55.02 234.324 57.52 L 234.324 58.52 Q 234.324 59.22 234.824 59.22 A 0.142 0.142 0 0 0 234.921 59.176 Q 235.028 59.076 235.118 58.749 A 4.017 4.017 0 0 0 235.174 58.52 Q 235.324 57.82 235.424 57.52 A 10.806 10.806 0 0 0 235.507 57.161 Q 235.624 56.614 235.704 55.982 A 20.297 20.297 0 0 0 235.824 54.67 Q 235.924 53.02 235.924 51.32 Q 235.924 49.62 235.774 47.97 Q 235.624 46.32 235.424 45.22 A 4.458 4.458 0 0 0 235.422 45.1 Q 235.41 44.672 235.324 43.72 A 13.004 13.004 0 0 1 235.319 43.673 Q 235.225 42.587 235.274 41.07 A 22.177 22.177 0 0 1 235.365 39.666 A 28.327 28.327 0 0 1 235.624 37.72 Q 235.924 35.92 236.724 34.22 A 7.259 7.259 0 0 1 237.476 33.011 A 5.2 5.2 0 0 1 239.074 31.62 A 8.773 8.773 0 0 1 239.255 31.523 A 7.645 7.645 0 0 1 242.074 30.67 Q 243.624 30.52 244.974 30.82 Q 245.923 31.031 246.501 31.291 A 2.936 2.936 0 0 1 246.924 31.52 A 2.176 2.176 0 0 0 247.017 31.573 Q 247.281 31.714 247.451 31.698 A 0.272 0.272 0 0 0 247.624 31.62 A 0.063 0.063 0 0 0 247.639 31.595 Q 247.683 31.46 247.324 30.92 A 6.588 6.588 0 0 0 246.805 30.375 Q 246.265 29.869 245.558 29.412 A 12.797 12.797 0 0 0 244.124 28.62 A 6.173 6.173 0 0 0 242.68 28.146 Q 241.008 27.81 238.824 28.22 Q 237.324 28.52 236.124 29.47 A 12.3 12.3 0 0 0 235.829 29.711 A 10.935 10.935 0 0 0 234.074 31.57 A 11.898 11.898 0 0 0 233.969 31.714 A 10.684 10.684 0 0 0 232.724 33.97 Z M 218.024 65.72 L 217.824 65.32 A 2.432 2.432 0 0 1 217.772 65.21 Q 217.639 64.908 217.722 64.821 A 0.095 0.095 0 0 1 217.724 64.82 A 0.169 0.169 0 0 1 217.846 64.77 Q 217.9 64.769 217.967 64.795 A 0.624 0.624 0 0 1 218.024 64.82 A 0.451 0.451 0 0 1 218.075 64.881 Q 218.124 64.95 218.124 65.02 Q 219.297 66.096 220.136 66.645 A 7.688 7.688 0 0 0 220.174 66.67 Q 221.024 67.22 222.424 67.72 A 11.736 11.736 0 0 0 223.915 68.005 Q 225.308 68.184 227.024 68.12 A 8.318 8.318 0 0 0 227.738 68.006 Q 228.111 67.931 228.534 67.819 A 18.884 18.884 0 0 0 229.224 67.62 A 13.886 13.886 0 0 1 229.53 67.529 Q 230.404 67.282 230.585 67.382 A 0.09 0.09 0 0 1 230.624 67.42 A 0.373 0.373 0 0 1 230.688 67.55 Q 230.783 67.914 230.024 68.42 A 7.111 7.111 0 0 1 229.158 68.908 Q 228.721 69.118 228.207 69.305 A 13.513 13.513 0 0 1 227.724 69.47 Q 226.324 69.92 224.824 70.07 A 8.316 8.316 0 0 1 224.327 70.105 Q 223.153 70.152 222.324 69.82 A 12.6 12.6 0 0 1 221.239 69.305 Q 220.176 68.733 219.593 68.092 A 3.71 3.71 0 0 1 219.574 68.07 Q 218.737 67.135 218.045 65.764 A 14.497 14.497 0 0 1 218.024 65.72 Z" id="6" vector-effect="non-scaling-stroke"/></g></svg>